# Blender v2.78 (sub 0) OBJ File: ''
# www.blender.org
mtllib bombUp.mtl
o Cube
v 0.887155 -0.162120 0.618141
v 0.887155 -0.810971 0.150175
v 0.087155 -0.810971 0.150175
v 0.087155 -0.162119 0.618141
v 0.887155 -0.163290 0.619763
v 0.887155 -0.812141 0.151797
v 0.087155 -0.812140 0.151797
v 0.087155 -0.163290 0.619763
vt 0.0000 0.0000
vt 1.0000 0.0000
vt 1.0000 1.0000
vt 0.0000 1.0000
vt 0.0000 0.0000
vt 1.0000 0.0000
vt 1.0000 1.0000
vt 0.0000 1.0000
vt 1.0000 0.0000
vt 1.0000 1.0000
vt 0.0000 1.0000
vt 0.0000 0.0000
vt 1.0000 0.0000
vt 0.0000 1.0000
vt 0.0000 0.0000
vt 1.0000 0.0000
vt 1.0000 1.0000
vt 1.0000 0.0000
vt 1.0000 1.0000
vt 0.0000 1.0000
vn -0.0000 0.5850 -0.8111
vn -0.0000 -0.5850 0.8111
vn 1.0000 -0.0000 0.0000
vn -0.0000 -0.8110 -0.5850
vn -1.0000 0.0000 -0.0000
vn 0.0000 0.8110 0.5850
usemtl Material
s off
f 1/1/1 2/2/1 3/3/1 4/4/1
f 5/5/2 8/6/2 7/7/2 6/8/2
f 1/1/3 5/9/3 6/10/3 2/11/3
f 2/12/4 6/13/4 7/7/4 3/14/4
f 3/15/5 7/16/5 8/17/5 4/4/5
f 5/5/6 1/18/6 4/19/6 8/20/6
