# Blender v2.78 (sub 0) OBJ File: 'wall.blend'
# www.blender.org
mtllib wall.mtl
o Cube
v 1.007879 1.006162 0.000783
v 1.007879 0.006163 0.000783
v 0.007879 0.006163 0.000776
v 0.007879 1.006162 0.000776
v 0.590012 0.588307 1.486572
v 0.590012 0.424018 1.486572
v 0.425724 0.424018 1.486571
v 0.425724 0.588307 1.486571
v 1.007872 1.006162 1.000783
v 1.007871 0.006162 1.000783
v 0.007872 1.006162 1.000776
v 0.007872 0.006163 1.000776
vt 0.0000 0.0000
vt 1.0000 0.0000
vt 1.0000 1.0000
vt 0.0000 1.0000
vt 0.0000 0.0000
vt 1.0000 0.0000
vt 1.0000 1.0000
vt 0.0000 1.0000
vt 1.0000 0.0000
vt 1.0000 1.0000
vt 0.0000 1.0000
vt 0.0000 0.0000
vt 1.0000 0.0000
vt 1.0000 1.0000
vt 0.0000 1.0000
vt 0.0000 0.0000
vt 1.0000 0.0000
vt 1.0000 1.0000
vt 0.0000 0.0000
vt 1.0000 0.0000
vt 1.0000 1.0000
vt 0.0000 1.0000
vt 1.0000 0.0000
vt 0.0000 1.0000
vt 0.0000 0.0000
vt 1.0000 0.0000
vt 1.0000 1.0000
vt 0.0000 0.0000
vt 1.0000 0.0000
vt 0.0000 1.0000
vt 0.0000 0.0000
vt 0.0000 1.0000
vn 0.0000 0.0000 -1.0000
vn -0.0000 0.0000 1.0000
vn 1.0000 -0.0000 0.0000
vn -0.0000 -1.0000 -0.0000
vn -1.0000 0.0000 -0.0000
vn 0.0000 1.0000 0.0000
vn 0.7581 -0.0000 0.6521
vn -0.0000 0.7581 0.6521
vn -0.0000 -0.7581 0.6521
vn -0.7581 0.0000 0.6521
usemtl Material
s off
f 1/1/1 2/2/1 3/3/1 4/4/1
f 5/5/2 8/6/2 7/7/2 6/8/2
f 1/1/3 9/9/3 10/10/3 2/11/3
f 2/12/4 10/13/4 12/14/4 3/15/4
f 3/16/5 12/17/5 11/18/5 4/4/5
f 9/19/6 1/20/6 4/21/6 11/22/6
f 5/5/7 6/23/7 10/10/7 9/24/7
f 8/25/8 5/26/8 9/27/8 11/22/8
f 6/28/9 7/29/9 12/14/9 10/30/9
f 7/31/10 8/6/10 11/18/10 12/32/10
